<?xml version="1.0" encoding="UTF-8"?>
<svg width="171px" height="27px" viewBox="0 0 171 27" version="1.1" xmlns="http://www.w3.org/2000/svg" xmlns:xlink="http://www.w3.org/1999/xlink">
    <!-- Generator: Sketch 49.3 (51167) - http://www.bohemiancoding.com/sketch -->
    <title>Devcenter Primary</title>
    <desc>Created with Sketch.</desc>
    <defs></defs>
    <g id="Devcenter-Branding" stroke="none" stroke-width="1" fill="none" fill-rule="evenodd">
        <g id="Devcenter-Logos" transform="translate(-247.000000, -79.000000)" fill="#000000">
            <g id="Devcenter-primary-together" transform="translate(172.000000, 60.000000)">
                <path d="M78.768,41.868 L83.988,41.868 C88.704,41.868 92.664,38.7 92.664,32.292 C92.664,25.848 88.776,22.608 84.06,22.608 L78.768,22.608 L78.768,41.868 Z M84.096,45 L75.24,45 L75.24,19.476 L84.168,19.476 C90.648,19.476 96.3,23.904 96.3,32.292 C96.3,40.644 90.576,45 84.096,45 Z M103.896,34.56 L113.364,34.56 C113.292,32.076 111.672,30.132 108.612,30.132 C105.768,30.132 104.04,32.328 103.896,34.56 Z M113.868,39.06 L116.784,40.068 C115.812,43.128 113.04,45.54 109.008,45.54 C104.364,45.54 100.296,42.156 100.296,36.288 C100.296,30.852 104.22,27.144 108.576,27.144 C113.904,27.144 116.892,30.816 116.892,36.216 C116.892,36.648 116.856,37.08 116.82,37.296 L103.788,37.296 C103.86,40.392 106.092,42.552 109.008,42.552 C111.816,42.552 113.22,41.004 113.868,39.06 Z M136.584,27.684 L129.672,45 L126.252,45 L119.232,27.684 L123.048,27.684 L127.98,41.04 L132.948,27.684 L136.584,27.684 Z M147.456,30.276 C144.72,30.276 142.2,32.292 142.2,36.324 C142.2,40.284 144.684,42.408 147.492,42.408 C150.732,42.408 151.92,40.212 152.316,38.844 L155.304,40.14 C154.476,42.624 151.992,45.54 147.492,45.54 C142.452,45.54 138.744,41.58 138.744,36.324 C138.744,30.924 142.524,27.144 147.456,27.144 C152.064,27.144 154.44,30.024 155.16,32.652 L152.1,33.948 C151.668,32.256 150.408,30.276 147.456,30.276 Z M162.18,34.56 L171.648,34.56 C171.576,32.076 169.956,30.132 166.896,30.132 C164.052,30.132 162.324,32.328 162.18,34.56 Z M172.152,39.06 L175.068,40.068 C174.096,43.128 171.324,45.54 167.292,45.54 C162.648,45.54 158.58,42.156 158.58,36.288 C158.58,30.852 162.504,27.144 166.86,27.144 C172.188,27.144 175.176,30.816 175.176,36.216 C175.176,36.648 175.14,37.08 175.104,37.296 L162.072,37.296 C162.144,40.392 164.376,42.552 167.292,42.552 C170.1,42.552 171.504,41.004 172.152,39.06 Z M183.78,34.992 L183.78,45 L180.396,45 L180.396,27.684 L183.708,27.684 L183.708,30.168 C184.968,28.008 187.02,27.18 189.036,27.18 C193.176,27.18 195.228,30.168 195.228,34.02 L195.228,45 L191.844,45 L191.844,34.596 C191.844,32.184 190.836,30.24 187.812,30.24 C185.148,30.24 183.78,32.364 183.78,34.992 Z M206.064,22.212 L206.064,27.684 L209.808,27.684 L209.808,30.744 L206.064,30.744 L206.064,39.744 C206.064,41.328 206.712,42.12 208.476,42.12 C208.908,42.12 209.52,42.048 209.808,41.976 L209.808,44.856 C209.52,44.964 208.656,45.18 207.504,45.18 C204.552,45.18 202.68,43.38 202.68,40.248 L202.68,30.744 L199.368,30.744 L199.368,27.684 L200.304,27.684 C202.176,27.684 202.968,26.532 202.968,25.02 L202.968,22.212 L206.064,22.212 Z M217.224,34.56 L226.692,34.56 C226.62,32.076 225,30.132 221.94,30.132 C219.096,30.132 217.368,32.328 217.224,34.56 Z M227.196,39.06 L230.112,40.068 C229.14,43.128 226.368,45.54 222.336,45.54 C217.692,45.54 213.624,42.156 213.624,36.288 C213.624,30.852 217.548,27.144 221.904,27.144 C227.232,27.144 230.22,30.816 230.22,36.216 C230.22,36.648 230.184,37.08 230.148,37.296 L217.116,37.296 C217.188,40.392 219.42,42.552 222.336,42.552 C225.144,42.552 226.548,41.004 227.196,39.06 Z M245.052,27.504 L245.052,31.104 C244.548,31.032 244.044,30.996 243.576,30.996 C240.732,30.996 238.824,32.508 238.824,36.324 L238.824,45 L235.44,45 L235.44,27.684 L238.752,27.684 L238.752,30.708 C240.012,28.044 242.172,27.396 243.936,27.396 C244.404,27.396 244.872,27.468 245.052,27.504 Z" id="Devcenter-Primary"></path>
            </g>
        </g>
    </g>
</svg>